# Blender v2.76 (sub 0) OBJ File: ''
# www.blender.org
mtllib floor.mtl
o Grid
v -1.000000 0.000000 1.000000
v -0.777778 0.000000 1.000000
v -0.555556 0.000000 1.000000
v -0.333333 0.000000 1.000000
v -0.111111 0.000000 1.000000
v 0.111111 0.000000 1.000000
v 0.333333 0.000000 1.000000
v 0.555556 0.000000 1.000000
v 0.777778 0.000000 1.000000
v 1.000000 0.000000 1.000000
v -1.000000 0.000000 0.777778
v -0.777778 0.000000 0.777778
v -0.555556 0.000000 0.777778
v -0.333333 0.000000 0.777778
v -0.111111 0.000000 0.777778
v 0.111111 0.000000 0.777778
v 0.333333 0.000000 0.777778
v 0.555556 0.000000 0.777778
v 0.777778 0.000000 0.777778
v 1.000000 0.000000 0.777778
v -1.000000 0.000000 0.555556
v -0.777778 0.000000 0.555556
v -0.555556 0.000000 0.555556
v -0.333333 0.000000 0.555556
v -0.111111 0.000000 0.555556
v 0.111111 0.000000 0.555556
v 0.333333 0.000000 0.555556
v 0.555556 0.000000 0.555556
v 0.777778 0.000000 0.555556
v 1.000000 0.000000 0.555556
v -1.000000 0.000000 0.333333
v -0.777778 0.000000 0.333333
v -0.555556 0.000000 0.333333
v -0.333333 0.000000 0.333333
v -0.111111 0.000000 0.333333
v 0.111111 0.000000 0.333333
v 0.333333 0.000000 0.333333
v 0.555556 0.000000 0.333333
v 0.777778 0.000000 0.333333
v 1.000000 0.000000 0.333333
v -1.000000 0.000000 0.111111
v -0.777778 0.000000 0.111111
v -0.555556 0.000000 0.111111
v -0.333333 0.000000 0.111111
v -0.111111 0.000000 0.111111
v 0.111111 0.000000 0.111111
v 0.333333 0.000000 0.111111
v 0.555556 0.000000 0.111111
v 0.777778 0.000000 0.111111
v 1.000000 0.000000 0.111111
v -1.000000 0.000000 -0.111111
v -0.777778 0.000000 -0.111111
v -0.555556 0.000000 -0.111111
v -0.333333 0.000000 -0.111111
v -0.111111 0.000000 -0.111111
v 0.111111 0.000000 -0.111111
v 0.333333 0.000000 -0.111111
v 0.555556 0.000000 -0.111111
v 0.777778 0.000000 -0.111111
v 1.000000 0.000000 -0.111111
v -1.000000 0.000000 -0.333333
v -0.777778 0.000000 -0.333333
v -0.555556 0.000000 -0.333333
v -0.333333 0.000000 -0.333333
v -0.111111 0.000000 -0.333333
v 0.111111 0.000000 -0.333333
v 0.333333 0.000000 -0.333333
v 0.555556 0.000000 -0.333333
v 0.777778 0.000000 -0.333333
v 1.000000 0.000000 -0.333333
v -1.000000 0.000000 -0.555556
v -0.777778 0.000000 -0.555556
v -0.555556 0.000000 -0.555556
v -0.333333 0.000000 -0.555556
v -0.111111 0.000000 -0.555556
v 0.111111 0.000000 -0.555556
v 0.333333 0.000000 -0.555556
v 0.555556 0.000000 -0.555556
v 0.777778 0.000000 -0.555556
v 1.000000 0.000000 -0.555556
v -1.000000 0.000000 -0.777778
v -0.777778 0.000000 -0.777778
v -0.555556 0.000000 -0.777778
v -0.333333 0.000000 -0.777778
v -0.111111 0.000000 -0.777778
v 0.111111 0.000000 -0.777778
v 0.333333 0.000000 -0.777778
v 0.555556 0.000000 -0.777778
v 0.777778 0.000000 -0.777778
v 1.000000 0.000000 -0.777778
v -1.000000 0.000000 -1.000000
v -0.777778 0.000000 -1.000000
v -0.555556 0.000000 -1.000000
v -0.333333 0.000000 -1.000000
v -0.111111 0.000000 -1.000000
v 0.111111 0.000000 -1.000000
v 0.333333 0.000000 -1.000000
v 0.555556 0.000000 -1.000000
v 0.777778 0.000000 -1.000000
v 1.000000 0.000000 -1.000000
vt 0.111495 0.000138
vt 0.111457 0.111189
vt 0.000407 0.111151
vt 0.222546 0.000177
vt 0.222508 0.111227
vt 0.333597 0.000215
vt 0.333558 0.111265
vt 0.444647 0.000253
vt 0.444609 0.111304
vt 0.555698 0.000291
vt 0.555659 0.111342
vt 0.666748 0.000330
vt 0.666710 0.111380
vt 0.777799 0.000368
vt 0.777761 0.111419
vt 0.888849 0.000406
vt 0.888811 0.111457
vt 0.999900 0.000445
vt 0.999862 0.111495
vt 0.111419 0.222239
vt 0.000368 0.222201
vt 0.222469 0.222278
vt 0.333520 0.222316
vt 0.444571 0.222354
vt 0.555621 0.222393
vt 0.666672 0.222431
vt 0.777722 0.222469
vt 0.888773 0.222507
vt 0.999824 0.222546
vt 0.111381 0.333290
vt 0.000330 0.333252
vt 0.222431 0.333328
vt 0.333482 0.333367
vt 0.444532 0.333405
vt 0.555583 0.333443
vt 0.666633 0.333481
vt 0.777684 0.333520
vt 0.888735 0.333558
vt 0.999785 0.333596
vt 0.111342 0.444340
vt 0.000292 0.444302
vt 0.222393 0.444379
vt 0.333443 0.444417
vt 0.444494 0.444455
vt 0.555544 0.444494
vt 0.666595 0.444532
vt 0.777646 0.444570
vt 0.888696 0.444609
vt 0.999747 0.444647
vt 0.111304 0.555391
vt 0.000253 0.555353
vt 0.222354 0.555429
vt 0.333405 0.555468
vt 0.444456 0.555506
vt 0.555506 0.555544
vt 0.666557 0.555583
vt 0.777607 0.555621
vt 0.888658 0.555659
vt 0.999709 0.555698
vt 0.111266 0.666442
vt 0.000215 0.666403
vt 0.222316 0.666480
vt 0.333367 0.666518
vt 0.444417 0.666557
vt 0.555468 0.666595
vt 0.666518 0.666633
vt 0.777569 0.666672
vt 0.888620 0.666710
vt 0.999670 0.666748
vt 0.111227 0.777492
vt 0.000177 0.777454
vt 0.222278 0.777530
vt 0.333328 0.777569
vt 0.444379 0.777607
vt 0.555430 0.777645
vt 0.666480 0.777684
vt 0.777531 0.777722
vt 0.888581 0.777760
vt 0.999632 0.777799
vt 0.111189 0.888543
vt 0.000138 0.888504
vt 0.222239 0.888581
vt 0.333290 0.888619
vt 0.444341 0.888658
vt 0.555391 0.888696
vt 0.666442 0.888734
vt 0.777492 0.888773
vt 0.888543 0.888811
vt 0.999594 0.888849
vt 0.111151 0.999593
vt 0.000100 0.999555
vt 0.222201 0.999632
vt 0.333252 0.999670
vt 0.444302 0.999708
vt 0.555353 0.999747
vt 0.666403 0.999785
vt 0.777454 0.999823
vt 0.888505 0.999862
vt 0.999555 0.999900
vt 0.000445 0.000100
vn 0.000000 1.000000 0.000000
usemtl Material.001
s off
f 2/1/1 12/2/1 11/3/1
f 3/4/1 13/5/1 12/2/1
f 4/6/1 14/7/1 13/5/1
f 5/8/1 15/9/1 14/7/1
f 6/10/1 16/11/1 15/9/1
f 7/12/1 17/13/1 16/11/1
f 8/14/1 18/15/1 17/13/1
f 9/16/1 19/17/1 18/15/1
f 10/18/1 20/19/1 19/17/1
f 12/2/1 22/20/1 21/21/1
f 13/5/1 23/22/1 22/20/1
f 14/7/1 24/23/1 23/22/1
f 15/9/1 25/24/1 24/23/1
f 16/11/1 26/25/1 25/24/1
f 17/13/1 27/26/1 26/25/1
f 18/15/1 28/27/1 27/26/1
f 19/17/1 29/28/1 28/27/1
f 20/19/1 30/29/1 29/28/1
f 22/20/1 32/30/1 31/31/1
f 23/22/1 33/32/1 32/30/1
f 24/23/1 34/33/1 33/32/1
f 25/24/1 35/34/1 34/33/1
f 26/25/1 36/35/1 35/34/1
f 27/26/1 37/36/1 36/35/1
f 28/27/1 38/37/1 37/36/1
f 29/28/1 39/38/1 38/37/1
f 30/29/1 40/39/1 39/38/1
f 32/30/1 42/40/1 41/41/1
f 33/32/1 43/42/1 42/40/1
f 34/33/1 44/43/1 43/42/1
f 35/34/1 45/44/1 44/43/1
f 36/35/1 46/45/1 45/44/1
f 37/36/1 47/46/1 46/45/1
f 38/37/1 48/47/1 47/46/1
f 39/38/1 49/48/1 48/47/1
f 40/39/1 50/49/1 49/48/1
f 42/40/1 52/50/1 51/51/1
f 43/42/1 53/52/1 52/50/1
f 44/43/1 54/53/1 53/52/1
f 45/44/1 55/54/1 54/53/1
f 46/45/1 56/55/1 55/54/1
f 47/46/1 57/56/1 56/55/1
f 48/47/1 58/57/1 57/56/1
f 49/48/1 59/58/1 58/57/1
f 50/49/1 60/59/1 59/58/1
f 52/50/1 62/60/1 61/61/1
f 53/52/1 63/62/1 62/60/1
f 54/53/1 64/63/1 63/62/1
f 55/54/1 65/64/1 64/63/1
f 56/55/1 66/65/1 65/64/1
f 57/56/1 67/66/1 66/65/1
f 58/57/1 68/67/1 67/66/1
f 59/58/1 69/68/1 68/67/1
f 60/59/1 70/69/1 69/68/1
f 62/60/1 72/70/1 71/71/1
f 63/62/1 73/72/1 72/70/1
f 64/63/1 74/73/1 73/72/1
f 65/64/1 75/74/1 74/73/1
f 66/65/1 76/75/1 75/74/1
f 67/66/1 77/76/1 76/75/1
f 68/67/1 78/77/1 77/76/1
f 69/68/1 79/78/1 78/77/1
f 70/69/1 80/79/1 79/78/1
f 72/70/1 82/80/1 81/81/1
f 73/72/1 83/82/1 82/80/1
f 74/73/1 84/83/1 83/82/1
f 75/74/1 85/84/1 84/83/1
f 76/75/1 86/85/1 85/84/1
f 77/76/1 87/86/1 86/85/1
f 78/77/1 88/87/1 87/86/1
f 79/78/1 89/88/1 88/87/1
f 80/79/1 90/89/1 89/88/1
f 82/80/1 92/90/1 91/91/1
f 83/82/1 93/92/1 92/90/1
f 84/83/1 94/93/1 93/92/1
f 85/84/1 95/94/1 94/93/1
f 86/85/1 96/95/1 95/94/1
f 87/86/1 97/96/1 96/95/1
f 88/87/1 98/97/1 97/96/1
f 89/88/1 99/98/1 98/97/1
f 90/89/1 100/99/1 99/98/1
f 1/100/1 2/1/1 11/3/1
f 2/1/1 3/4/1 12/2/1
f 3/4/1 4/6/1 13/5/1
f 4/6/1 5/8/1 14/7/1
f 5/8/1 6/10/1 15/9/1
f 6/10/1 7/12/1 16/11/1
f 7/12/1 8/14/1 17/13/1
f 8/14/1 9/16/1 18/15/1
f 9/16/1 10/18/1 19/17/1
f 11/3/1 12/2/1 21/21/1
f 12/2/1 13/5/1 22/20/1
f 13/5/1 14/7/1 23/22/1
f 14/7/1 15/9/1 24/23/1
f 15/9/1 16/11/1 25/24/1
f 16/11/1 17/13/1 26/25/1
f 17/13/1 18/15/1 27/26/1
f 18/15/1 19/17/1 28/27/1
f 19/17/1 20/19/1 29/28/1
f 21/21/1 22/20/1 31/31/1
f 22/20/1 23/22/1 32/30/1
f 23/22/1 24/23/1 33/32/1
f 24/23/1 25/24/1 34/33/1
f 25/24/1 26/25/1 35/34/1
f 26/25/1 27/26/1 36/35/1
f 27/26/1 28/27/1 37/36/1
f 28/27/1 29/28/1 38/37/1
f 29/28/1 30/29/1 39/38/1
f 31/31/1 32/30/1 41/41/1
f 32/30/1 33/32/1 42/40/1
f 33/32/1 34/33/1 43/42/1
f 34/33/1 35/34/1 44/43/1
f 35/34/1 36/35/1 45/44/1
f 36/35/1 37/36/1 46/45/1
f 37/36/1 38/37/1 47/46/1
f 38/37/1 39/38/1 48/47/1
f 39/38/1 40/39/1 49/48/1
f 41/41/1 42/40/1 51/51/1
f 42/40/1 43/42/1 52/50/1
f 43/42/1 44/43/1 53/52/1
f 44/43/1 45/44/1 54/53/1
f 45/44/1 46/45/1 55/54/1
f 46/45/1 47/46/1 56/55/1
f 47/46/1 48/47/1 57/56/1
f 48/47/1 49/48/1 58/57/1
f 49/48/1 50/49/1 59/58/1
f 51/51/1 52/50/1 61/61/1
f 52/50/1 53/52/1 62/60/1
f 53/52/1 54/53/1 63/62/1
f 54/53/1 55/54/1 64/63/1
f 55/54/1 56/55/1 65/64/1
f 56/55/1 57/56/1 66/65/1
f 57/56/1 58/57/1 67/66/1
f 58/57/1 59/58/1 68/67/1
f 59/58/1 60/59/1 69/68/1
f 61/61/1 62/60/1 71/71/1
f 62/60/1 63/62/1 72/70/1
f 63/62/1 64/63/1 73/72/1
f 64/63/1 65/64/1 74/73/1
f 65/64/1 66/65/1 75/74/1
f 66/65/1 67/66/1 76/75/1
f 67/66/1 68/67/1 77/76/1
f 68/67/1 69/68/1 78/77/1
f 69/68/1 70/69/1 79/78/1
f 71/71/1 72/70/1 81/81/1
f 72/70/1 73/72/1 82/80/1
f 73/72/1 74/73/1 83/82/1
f 74/73/1 75/74/1 84/83/1
f 75/74/1 76/75/1 85/84/1
f 76/75/1 77/76/1 86/85/1
f 77/76/1 78/77/1 87/86/1
f 78/77/1 79/78/1 88/87/1
f 79/78/1 80/79/1 89/88/1
f 81/81/1 82/80/1 91/91/1
f 82/80/1 83/82/1 92/90/1
f 83/82/1 84/83/1 93/92/1
f 84/83/1 85/84/1 94/93/1
f 85/84/1 86/85/1 95/94/1
f 86/85/1 87/86/1 96/95/1
f 87/86/1 88/87/1 97/96/1
f 88/87/1 89/88/1 98/97/1
f 89/88/1 90/89/1 99/98/1
